<mxfile host="app.diagrams.net" modified="2023-09-15T13:30:06.917Z" agent="Mozilla/5.0 (Windows NT 10.0; Win64; x64; rv:109.0) Gecko/20100101 Firefox/117.0" etag="YFup4WALAiQEZF2KrRR4" version="21.7.3" type="device">
  <diagram name="Page-1" id="YoZcaFVjCW5Mtdl0JUES">
    <mxGraphModel dx="2261" dy="763" grid="1" gridSize="10" guides="1" tooltips="1" connect="1" arrows="1" fold="1" page="1" pageScale="1" pageWidth="827" pageHeight="1169" math="0" shadow="0">
      <root>
        <mxCell id="0" />
        <mxCell id="1" parent="0" />
        <mxCell id="rXgHJ478rdaFjFrcBP5B-27" value="" style="rounded=0;whiteSpace=wrap;html=1;" vertex="1" parent="1">
          <mxGeometry x="-8.5" y="90" width="845" height="500" as="geometry" />
        </mxCell>
        <mxCell id="rXgHJ478rdaFjFrcBP5B-1" value="&lt;div&gt;Інженер-споживач&lt;/div&gt;" style="shape=umlActor;verticalLabelPosition=bottom;verticalAlign=top;html=1;outlineConnect=0;" vertex="1" parent="1">
          <mxGeometry x="50" y="330" width="30" height="60" as="geometry" />
        </mxCell>
        <mxCell id="rXgHJ478rdaFjFrcBP5B-2" value="" style="rounded=0;whiteSpace=wrap;html=1;" vertex="1" parent="1">
          <mxGeometry x="174" y="120" width="466" height="440" as="geometry" />
        </mxCell>
        <mxCell id="rXgHJ478rdaFjFrcBP5B-3" value="&lt;font style=&quot;font-size: 14px;&quot;&gt;Програмний продукт&lt;/font&gt; SafeCo Enginring" style="text;html=1;align=center;verticalAlign=middle;resizable=0;points=[];autosize=1;strokeColor=none;fillColor=none;" vertex="1" parent="1">
          <mxGeometry x="174" y="120" width="260" height="30" as="geometry" />
        </mxCell>
        <mxCell id="rXgHJ478rdaFjFrcBP5B-5" value="Поліпшення умов освітленості" style="ellipse;whiteSpace=wrap;html=1;" vertex="1" parent="1">
          <mxGeometry x="200" y="180" width="180" height="50" as="geometry" />
        </mxCell>
        <mxCell id="rXgHJ478rdaFjFrcBP5B-6" value="Виявлення потенційних небезпек" style="ellipse;whiteSpace=wrap;html=1;" vertex="1" parent="1">
          <mxGeometry x="190" y="330" width="180" height="50" as="geometry" />
        </mxCell>
        <mxCell id="rXgHJ478rdaFjFrcBP5B-7" value="Отримання точних даних про рівень освітленості" style="ellipse;whiteSpace=wrap;html=1;" vertex="1" parent="1">
          <mxGeometry x="370" y="450" width="180" height="50" as="geometry" />
        </mxCell>
        <mxCell id="rXgHJ478rdaFjFrcBP5B-9" value="" style="endArrow=classic;html=1;rounded=0;entryX=0;entryY=0.5;entryDx=0;entryDy=0;" edge="1" parent="1" source="rXgHJ478rdaFjFrcBP5B-1" target="rXgHJ478rdaFjFrcBP5B-6">
          <mxGeometry width="50" height="50" relative="1" as="geometry">
            <mxPoint x="270" y="460" as="sourcePoint" />
            <mxPoint x="320" y="410" as="targetPoint" />
          </mxGeometry>
        </mxCell>
        <mxCell id="rXgHJ478rdaFjFrcBP5B-10" value="" style="endArrow=classic;html=1;rounded=0;entryX=0;entryY=0.5;entryDx=0;entryDy=0;" edge="1" parent="1" source="rXgHJ478rdaFjFrcBP5B-1" target="rXgHJ478rdaFjFrcBP5B-7">
          <mxGeometry width="50" height="50" relative="1" as="geometry">
            <mxPoint x="270" y="460" as="sourcePoint" />
            <mxPoint x="320" y="410" as="targetPoint" />
          </mxGeometry>
        </mxCell>
        <mxCell id="rXgHJ478rdaFjFrcBP5B-11" value="" style="endArrow=classic;html=1;rounded=0;entryX=0;entryY=0.5;entryDx=0;entryDy=0;" edge="1" parent="1" source="rXgHJ478rdaFjFrcBP5B-1" target="rXgHJ478rdaFjFrcBP5B-5">
          <mxGeometry width="50" height="50" relative="1" as="geometry">
            <mxPoint x="70" y="380" as="sourcePoint" />
            <mxPoint x="320" y="410" as="targetPoint" />
          </mxGeometry>
        </mxCell>
        <mxCell id="rXgHJ478rdaFjFrcBP5B-12" value="Аналіз щодо освітленості " style="ellipse;whiteSpace=wrap;html=1;" vertex="1" parent="1">
          <mxGeometry x="440" y="330" width="180" height="50" as="geometry" />
        </mxCell>
        <mxCell id="rXgHJ478rdaFjFrcBP5B-13" value="" style="endArrow=none;dashed=1;html=1;rounded=0;entryX=1;entryY=0.5;entryDx=0;entryDy=0;exitX=0;exitY=0.5;exitDx=0;exitDy=0;startArrow=classic;startFill=1;endFill=0;" edge="1" parent="1" source="rXgHJ478rdaFjFrcBP5B-12" target="rXgHJ478rdaFjFrcBP5B-6">
          <mxGeometry width="50" height="50" relative="1" as="geometry">
            <mxPoint x="270" y="550" as="sourcePoint" />
            <mxPoint x="320" y="500" as="targetPoint" />
          </mxGeometry>
        </mxCell>
        <mxCell id="rXgHJ478rdaFjFrcBP5B-14" value="&lt;div&gt;Генерація звіту про освітленність&lt;/div&gt;" style="ellipse;whiteSpace=wrap;html=1;" vertex="1" parent="1">
          <mxGeometry x="440" y="230" width="180" height="50" as="geometry" />
        </mxCell>
        <mxCell id="rXgHJ478rdaFjFrcBP5B-15" value="" style="endArrow=classic;dashed=1;html=1;rounded=0;endFill=1;" edge="1" parent="1" source="rXgHJ478rdaFjFrcBP5B-12" target="rXgHJ478rdaFjFrcBP5B-14">
          <mxGeometry width="50" height="50" relative="1" as="geometry">
            <mxPoint x="450" y="350" as="sourcePoint" />
            <mxPoint x="500" y="300" as="targetPoint" />
          </mxGeometry>
        </mxCell>
        <mxCell id="rXgHJ478rdaFjFrcBP5B-16" value="include" style="text;html=1;align=center;verticalAlign=middle;resizable=0;points=[];autosize=1;strokeColor=none;fillColor=none;" vertex="1" parent="1">
          <mxGeometry x="384" y="320" width="60" height="30" as="geometry" />
        </mxCell>
        <mxCell id="rXgHJ478rdaFjFrcBP5B-18" value="&lt;div&gt;include&lt;/div&gt;" style="text;html=1;align=center;verticalAlign=middle;resizable=0;points=[];autosize=1;strokeColor=none;fillColor=none;rotation=90;" vertex="1" parent="1">
          <mxGeometry x="520" y="290" width="60" height="30" as="geometry" />
        </mxCell>
        <mxCell id="rXgHJ478rdaFjFrcBP5B-19" value="&lt;div&gt;Зовнішні інформаційні системи&lt;/div&gt;&lt;div&gt;&lt;br&gt;&lt;/div&gt;" style="shape=umlActor;verticalLabelPosition=bottom;verticalAlign=top;html=1;outlineConnect=0;" vertex="1" parent="1">
          <mxGeometry x="720" y="320" width="30" height="60" as="geometry" />
        </mxCell>
        <mxCell id="rXgHJ478rdaFjFrcBP5B-20" value="" style="endArrow=classic;html=1;rounded=0;entryX=1;entryY=0.5;entryDx=0;entryDy=0;" edge="1" parent="1" source="rXgHJ478rdaFjFrcBP5B-19" target="rXgHJ478rdaFjFrcBP5B-7">
          <mxGeometry width="50" height="50" relative="1" as="geometry">
            <mxPoint x="460" y="390" as="sourcePoint" />
            <mxPoint x="510" y="340" as="targetPoint" />
          </mxGeometry>
        </mxCell>
        <mxCell id="rXgHJ478rdaFjFrcBP5B-22" value="" style="endArrow=classic;html=1;rounded=0;" edge="1" parent="1" source="rXgHJ478rdaFjFrcBP5B-19" target="rXgHJ478rdaFjFrcBP5B-12">
          <mxGeometry width="50" height="50" relative="1" as="geometry">
            <mxPoint x="460" y="390" as="sourcePoint" />
            <mxPoint x="510" y="340" as="targetPoint" />
          </mxGeometry>
        </mxCell>
        <mxCell id="rXgHJ478rdaFjFrcBP5B-23" value="" style="endArrow=classic;html=1;rounded=0;" edge="1" parent="1" source="rXgHJ478rdaFjFrcBP5B-1" target="rXgHJ478rdaFjFrcBP5B-14">
          <mxGeometry width="50" height="50" relative="1" as="geometry">
            <mxPoint x="460" y="390" as="sourcePoint" />
            <mxPoint x="510" y="340" as="targetPoint" />
          </mxGeometry>
        </mxCell>
        <mxCell id="rXgHJ478rdaFjFrcBP5B-24" value="" style="endArrow=classic;html=1;rounded=0;" edge="1" parent="1" source="rXgHJ478rdaFjFrcBP5B-19" target="rXgHJ478rdaFjFrcBP5B-14">
          <mxGeometry width="50" height="50" relative="1" as="geometry">
            <mxPoint x="460" y="390" as="sourcePoint" />
            <mxPoint x="510" y="340" as="targetPoint" />
          </mxGeometry>
        </mxCell>
        <mxCell id="rXgHJ478rdaFjFrcBP5B-25" value="Економія коштів компанії" style="ellipse;whiteSpace=wrap;html=1;" vertex="1" parent="1">
          <mxGeometry x="180" y="490" width="180" height="50" as="geometry" />
        </mxCell>
        <mxCell id="rXgHJ478rdaFjFrcBP5B-26" value="" style="endArrow=classic;html=1;rounded=0;" edge="1" parent="1" source="rXgHJ478rdaFjFrcBP5B-1" target="rXgHJ478rdaFjFrcBP5B-25">
          <mxGeometry width="50" height="50" relative="1" as="geometry">
            <mxPoint x="460" y="390" as="sourcePoint" />
            <mxPoint x="510" y="340" as="targetPoint" />
          </mxGeometry>
        </mxCell>
      </root>
    </mxGraphModel>
  </diagram>
</mxfile>
